<svg width="25" height="25" viewBox="0 0 25 25" fill="none" xmlns="http://www.w3.org/2000/svg">
<path d="M12.5488 10.2539C11.3372 10.2539 10.3516 11.2396 10.3516 12.4512C10.3516 13.6628 11.3372 14.6484 12.5488 14.6484C13.7604 14.6484 14.7461 13.6628 14.7461 12.4512C14.7461 11.2396 13.7604 10.2539 12.5488 10.2539Z" fill="#8080E5"/>
<path d="M12.4512 0C5.58545 0 0 5.58545 0 12.4512C0 19.3169 5.58545 25 12.4512 25C19.3169 25 25 19.3169 25 12.4512C25 5.58545 19.3169 0 12.4512 0ZM17.6758 16.1133C16.6859 16.1133 15.8129 15.6171 15.2824 14.8635C14.6108 15.6236 13.6403 16.1133 12.5488 16.1133C10.5296 16.1133 8.88672 14.4704 8.88672 12.4512C8.88672 10.432 10.5296 8.78906 12.5488 8.78906C13.3764 8.78906 14.1321 9.07544 14.7461 9.54019V9.52148C14.7461 9.11665 15.0737 8.78906 15.4785 8.78906C15.8833 8.78906 16.2109 9.11665 16.2109 9.52148C16.2109 11.1504 16.2109 11.554 16.2109 13.1836C16.2109 13.9911 16.8683 14.6484 17.6758 14.6484C18.4833 14.6484 19.1406 13.9911 19.1406 13.1836C19.1406 8.28169 15.8969 5.85938 12.5488 5.85938C8.91392 5.85938 5.95703 8.81626 5.95703 12.4512C5.95703 16.0861 8.91392 19.043 12.5488 19.043C14.0137 19.043 15.3991 18.5738 16.5557 17.6854C17.3283 17.0957 18.2129 18.2599 17.4483 18.847C16.0329 19.9334 14.3391 20.5078 12.5488 20.5078C8.1064 20.5078 4.49219 16.8936 4.49219 12.4512C4.49219 8.00874 8.1064 4.39453 12.5488 4.39453C16.5965 4.39453 20.6055 7.37964 20.6055 13.1836C20.6055 14.7994 19.2916 16.1133 17.6758 16.1133Z" fill="#8080E5"/>
</svg>
