<svg width="25" height="25" viewBox="0 0 25 25" fill="none" xmlns="http://www.w3.org/2000/svg">
<path d="M12.4984 0.260208C5.59688 0.260208 0 5.87896 0 12.8102C0 18.354 3.58125 23.0571 8.55 24.718C9.175 24.8336 9.40313 24.4461 9.40313 24.1133C9.40313 23.8149 9.39219 23.0258 9.38594 21.979C5.90938 22.7368 5.175 20.2961 5.175 20.2961C4.60781 18.8461 3.7875 18.4602 3.7875 18.4602C2.65156 17.6821 3.87187 17.6977 3.87187 17.6977C5.12656 17.7868 5.78594 18.9915 5.78594 18.9915C6.90156 20.9086 8.7125 20.3555 9.425 20.0336C9.5375 19.2227 9.86094 18.6696 10.2187 18.3555C7.44375 18.0383 4.525 16.9618 4.525 12.154C4.525 10.7836 5.0125 9.66333 5.8125 8.78521C5.68281 8.46802 5.25469 7.19146 5.93438 5.46489C5.93438 5.46489 6.98438 5.12739 9.37188 6.75083C10.3688 6.47271 11.4375 6.33364 12.5016 6.32896C13.5625 6.33521 14.6328 6.47271 15.6312 6.75239C18.0172 5.12896 19.0656 5.46646 19.0656 5.46646C19.7469 7.19458 19.3187 8.46958 19.1906 8.78677C19.9922 9.66489 20.475 10.7852 20.475 12.1555C20.475 16.9758 17.5531 18.0368 14.7687 18.3477C15.2172 18.7352 15.6172 19.5008 15.6172 20.6711C15.6172 22.3493 15.6016 23.7024 15.6016 24.1133C15.6016 24.4493 15.8266 24.8399 16.4609 24.7164C21.4219 23.054 25 18.3524 25 12.8102C25 5.87896 19.4031 0.260208 12.4984 0.260208Z" fill="#8080E5"/>
</svg>
