<svg width="25" height="25" viewBox="0 0 25 25" fill="none" xmlns="http://www.w3.org/2000/svg">
<g clip-path="url(#clip0)">
<path d="M12.5009 24.9998C19.4044 24.9998 25.0008 19.4034 25.0008 12.4999C25.0008 5.59639 19.4044 0 12.5009 0C5.59737 0 0.000976562 5.59639 0.000976562 12.4999C0.000976562 19.4034 5.59737 24.9998 12.5009 24.9998Z" fill="#8080E5"/>
<path d="M20.1567 8.98331C19.6211 9.22084 19.0448 9.38149 18.4406 9.45324C19.0575 9.08358 19.531 8.49867 19.7545 7.80056C19.1772 8.14304 18.5375 8.39149 17.8572 8.52541C17.3122 7.94495 16.5356 7.5822 15.6758 7.5822C14.026 7.5822 12.6879 8.92025 12.6879 10.57C12.6879 10.8042 12.7145 11.0322 12.7657 11.251C10.2826 11.1264 8.08087 9.93699 6.60712 8.12878C6.34999 8.56997 6.20248 9.08358 6.20248 9.63105C6.20248 10.6674 6.73035 11.5823 7.53161 12.118C7.04207 12.1026 6.58105 11.9682 6.17841 11.7439C6.17819 11.7566 6.17819 11.7693 6.17819 11.7817C6.17819 13.2294 7.20852 14.4369 8.57509 14.7112C8.32464 14.7798 8.06015 14.8161 7.78808 14.8161C7.59512 14.8161 7.40817 14.7976 7.2259 14.7629C7.60604 15.9496 8.70923 16.8135 10.017 16.8378C8.99422 17.6393 7.70608 18.1168 6.30587 18.1168C6.06522 18.1168 5.8268 18.1028 5.59351 18.0749C6.91507 18.923 8.48596 19.4174 10.1732 19.4174C15.6689 19.4174 18.6743 14.8647 18.6743 10.9161C18.6743 10.7866 18.6714 10.6576 18.6656 10.5297C19.2498 10.1086 19.7563 9.58248 20.1567 8.98331Z" fill="#F1F2F2"/>
</g>
<defs>
<clipPath id="clip0">
<rect width="25" height="25" fill="white"/>
</clipPath>
</defs>
</svg>
